<?xml version="1.0"?>
<svg xmlns="http://www.w3.org/2000/svg" xmlns:lc="http://www.librecad.org" xmlns:xlink="http://www.w3.org/1999/xlink" width="330mm" height="400mm" viewBox="0 0 330 400">
    <g lc:layername="0" lc:is_locked="false" lc:is_construction="false" fill="none" stroke="black" stroke-width="1">
        <line x1="0" y1="400" x2="0" y2="360"/>
        <line x1="40" y1="360" x2="40" y2="320"/>
        <line x1="160" y1="360" x2="160" y2="400"/>
        <line x1="160" y1="400" x2="100" y2="400"/>
        <line x1="100" y1="400" x2="80" y2="380"/>
        <line x1="80" y1="380" x2="60" y2="400"/>
        <line x1="60" y1="400" x2="0" y2="400"/>
        <line x1="10" y1="360" x2="10" y2="365"/>
        <line x1="10" y1="365" x2="20" y2="365"/>
        <line x1="20" y1="365" x2="20" y2="360"/>
        <line x1="0" y1="360" x2="10" y2="360"/>
        <line x1="20" y1="360" x2="30" y2="360"/>
        <line x1="30" y1="360" x2="30" y2="365"/>
        <line x1="30" y1="365" x2="40" y2="365"/>
        <line x1="40" y1="365" x2="40" y2="360"/>
        <line x1="120" y1="360" x2="120" y2="365"/>
        <line x1="120" y1="365" x2="130" y2="365"/>
        <line x1="130" y1="365" x2="130" y2="360"/>
        <line x1="130" y1="360" x2="140" y2="360"/>
        <line x1="140" y1="360" x2="140" y2="365"/>
        <line x1="140" y1="365" x2="150" y2="365"/>
        <line x1="150" y1="365" x2="150" y2="360"/>
        <line x1="150" y1="360" x2="160" y2="360"/>
        <line x1="40" y1="320" x2="50" y2="320"/>
        <line x1="50" y1="320" x2="50" y2="325"/>
        <line x1="50" y1="325" x2="60" y2="325"/>
        <line x1="60" y1="325" x2="60" y2="320"/>
        <line x1="60" y1="320" x2="70" y2="320"/>
        <line x1="70" y1="320" x2="70" y2="325"/>
        <line x1="70" y1="325" x2="80" y2="325"/>
        <line x1="80" y1="325" x2="80" y2="320"/>
        <line x1="80" y1="320" x2="90" y2="320"/>
        <line x1="90" y1="320" x2="90" y2="325"/>
        <line x1="90" y1="325" x2="100" y2="325"/>
        <line x1="100" y1="325" x2="100" y2="320"/>
        <line x1="100" y1="320" x2="110" y2="320"/>
        <line x1="110" y1="320" x2="110" y2="325"/>
        <line x1="110" y1="325" x2="120" y2="325"/>
        <line x1="120" y1="325" x2="120" y2="360"/>
        <path d="M80,340 L80,340 L80,340 L80,340 L80,340 Z "/>
        <path d="M77.5,340 L82.5,340 L82.5,330 L77.5,330 L77.5,340 Z "/>
        <line x1="170" y1="400" x2="170" y2="360"/>
        <line x1="210" y1="360" x2="210" y2="320"/>
        <line x1="330" y1="360" x2="330" y2="400"/>
        <line x1="330" y1="400" x2="270" y2="400"/>
        <line x1="270" y1="400" x2="250" y2="380"/>
        <line x1="250" y1="380" x2="230" y2="400"/>
        <line x1="230" y1="400" x2="170" y2="400"/>
        <line x1="180" y1="360" x2="180" y2="365"/>
        <line x1="180" y1="365" x2="190" y2="365"/>
        <line x1="190" y1="365" x2="190" y2="360"/>
        <line x1="170" y1="360" x2="180" y2="360"/>
        <line x1="190" y1="360" x2="200" y2="360"/>
        <line x1="200" y1="360" x2="200" y2="365"/>
        <line x1="200" y1="365" x2="210" y2="365"/>
        <line x1="210" y1="365" x2="210" y2="360"/>
        <line x1="290" y1="360" x2="290" y2="365"/>
        <line x1="290" y1="365" x2="300" y2="365"/>
        <line x1="300" y1="365" x2="300" y2="360"/>
        <line x1="300" y1="360" x2="310" y2="360"/>
        <line x1="310" y1="360" x2="310" y2="365"/>
        <line x1="310" y1="365" x2="320" y2="365"/>
        <line x1="320" y1="365" x2="320" y2="360"/>
        <line x1="320" y1="360" x2="330" y2="360"/>
        <line x1="210" y1="320" x2="220" y2="320"/>
        <line x1="220" y1="320" x2="220" y2="325"/>
        <line x1="220" y1="325" x2="230" y2="325"/>
        <line x1="230" y1="325" x2="230" y2="320"/>
        <line x1="230" y1="320" x2="240" y2="320"/>
        <line x1="240" y1="320" x2="240" y2="325"/>
        <line x1="240" y1="325" x2="250" y2="325"/>
        <line x1="250" y1="325" x2="250" y2="320"/>
        <line x1="250" y1="320" x2="260" y2="320"/>
        <line x1="260" y1="320" x2="260" y2="325"/>
        <line x1="260" y1="325" x2="270" y2="325"/>
        <line x1="270" y1="325" x2="270" y2="320"/>
        <line x1="270" y1="320" x2="280" y2="320"/>
        <line x1="280" y1="320" x2="280" y2="325"/>
        <line x1="280" y1="325" x2="290" y2="325"/>
        <line x1="290" y1="325" x2="290" y2="360"/>
        <path d="M250,340 L250,340 L250,340 L250,340 L250,340 Z "/>
        <path d="M247.5,340 L252.5,340 L252.5,330 L247.5,330 L247.5,340 Z "/>
        <line x1="110" y1="0" x2="110" y2="300"/>
        <line x1="200" y1="300" x2="200" y2="0"/>
        <line x1="100" y1="280" x2="100" y2="275"/>
        <line x1="100" y1="275" x2="90" y2="275"/>
        <line x1="90" y1="275" x2="90" y2="280"/>
        <line x1="90" y1="280" x2="100" y2="280"/>
        <line x1="80" y1="280" x2="80" y2="275"/>
        <line x1="80" y1="275" x2="70" y2="275"/>
        <line x1="70" y1="280" x2="80" y2="280"/>
        <line x1="110" y1="300" x2="70" y2="300"/>
        <line x1="70" y1="300" x2="70" y2="280"/>
        <line x1="70" y1="0" x2="110" y2="0"/>
        <line x1="100" y1="20" x2="100" y2="25"/>
        <line x1="100" y1="25" x2="90" y2="25"/>
        <line x1="90" y1="25" x2="90" y2="20"/>
        <line x1="90" y1="20" x2="100" y2="20"/>
        <line x1="80" y1="20" x2="80" y2="25"/>
        <line x1="80" y1="25" x2="70" y2="25"/>
        <line x1="80" y1="20" x2="70" y2="20"/>
        <line x1="70" y1="275" x2="70" y2="25"/>
        <line x1="70" y1="20" x2="70" y2="0"/>
        <line x1="120" y1="0" x2="200" y2="0"/>
        <line x1="120" y1="280" x2="130" y2="280"/>
        <line x1="130" y1="280" x2="130" y2="275"/>
        <line x1="130" y1="275" x2="120" y2="275"/>
        <line x1="120" y1="280" x2="120" y2="300"/>
        <line x1="120" y1="300" x2="200" y2="300"/>
        <line x1="140" y1="280" x2="150" y2="280"/>
        <line x1="150" y1="280" x2="150" y2="275"/>
        <line x1="150" y1="275" x2="140" y2="275"/>
        <line x1="140" y1="275" x2="140" y2="280"/>
        <line x1="160" y1="280" x2="170" y2="280"/>
        <line x1="170" y1="280" x2="170" y2="275"/>
        <line x1="170" y1="275" x2="160" y2="275"/>
        <line x1="160" y1="275" x2="160" y2="280"/>
        <line x1="180" y1="280" x2="180" y2="275"/>
        <line x1="180" y1="275" x2="190" y2="275"/>
        <line x1="190" y1="275" x2="190" y2="280"/>
        <line x1="190" y1="280" x2="180" y2="280"/>
        <line x1="120" y1="25" x2="130" y2="25"/>
        <line x1="130" y1="25" x2="130" y2="20"/>
        <line x1="130" y1="20" x2="120" y2="20"/>
        <line x1="120" y1="25" x2="120" y2="275"/>
        <line x1="120" y1="0" x2="120" y2="20"/>
        <line x1="140" y1="20" x2="140" y2="25"/>
        <line x1="140" y1="25" x2="150" y2="25"/>
        <line x1="150" y1="25" x2="150" y2="20"/>
        <line x1="150" y1="20" x2="140" y2="20"/>
        <line x1="160" y1="20" x2="160" y2="25"/>
        <line x1="160" y1="25" x2="170" y2="25"/>
        <line x1="170" y1="25" x2="170" y2="20"/>
        <line x1="170" y1="20" x2="160" y2="20"/>
        <line x1="180" y1="20" x2="180" y2="25"/>
        <line x1="180" y1="25" x2="190" y2="25"/>
        <line x1="190" y1="25" x2="190" y2="20"/>
        <line x1="190" y1="20" x2="180" y2="20"/>
        <line x1="250" y1="0" x2="250" y2="300"/>
        <line x1="240" y1="280" x2="240" y2="275"/>
        <line x1="240" y1="275" x2="230" y2="275"/>
        <line x1="230" y1="275" x2="230" y2="280"/>
        <line x1="230" y1="280" x2="240" y2="280"/>
        <line x1="220" y1="280" x2="220" y2="275"/>
        <line x1="220" y1="275" x2="210" y2="275"/>
        <line x1="210" y1="280" x2="220" y2="280"/>
        <line x1="250" y1="300" x2="210" y2="300"/>
        <line x1="210" y1="300" x2="210" y2="280"/>
        <line x1="210" y1="0" x2="250" y2="0"/>
        <line x1="240" y1="20" x2="240" y2="25"/>
        <line x1="240" y1="25" x2="230" y2="25"/>
        <line x1="230" y1="25" x2="230" y2="20"/>
        <line x1="230" y1="20" x2="240" y2="20"/>
        <line x1="220" y1="20" x2="220" y2="25"/>
        <line x1="220" y1="25" x2="210" y2="25"/>
        <line x1="220" y1="20" x2="210" y2="20"/>
        <line x1="210" y1="275" x2="210" y2="25"/>
        <line x1="210" y1="20" x2="210" y2="0"/>
        <line x1="260" y1="275" x2="265" y2="275"/>
        <line x1="265" y1="275" x2="265" y2="280"/>
        <line x1="265" y1="280" x2="275" y2="280"/>
        <line x1="275" y1="280" x2="275" y2="275"/>
        <line x1="275" y1="275" x2="280" y2="275"/>
        <line x1="260" y1="25" x2="260" y2="275"/>
        <line x1="265" y1="25" x2="260" y2="25"/>
        <line x1="280" y1="25" x2="275" y2="25"/>
        <line x1="275" y1="25" x2="275" y2="20"/>
        <line x1="275" y1="20" x2="265" y2="20"/>
        <line x1="265" y1="20" x2="265" y2="25"/>
        <line x1="280" y1="275" x2="280" y2="25"/>
    </g>
</svg>
