<?xml version="1.0" encoding="utf-8"?>
<!-- Generator: Adobe Illustrator 22.0.1, SVG Export Plug-In . SVG Version: 6.00 Build 0)  -->
<svg version="1.1" id="Ebene_1" xmlns="http://www.w3.org/2000/svg" xmlns:xlink="http://www.w3.org/1999/xlink" x="0px" y="0px"
	 viewBox="0 0 115.2 103.9" style="enable-background:new 0 0 115.2 103.9;" xml:space="preserve">
<style type="text/css">
	.st0{fill:#8CBF4D;}
</style>
<g>
	<path class="st0" d="M70.9,72.9c0.3,0.4,0.5,0.9,0.8,1.3c0.6,0.7,1.3,1.2,2.1,1.7c-0.1-0.1-0.1-0.2-0.2-0.3h0L65.2,49
		c3.7,3.1,8.8,5.8,15.2,8.2c3.5,1.4,6.2,2.8,8.1,4.2c-0.3-0.5-0.7-0.9-1-1.3c-1.8-1.8-5-3.6-9.7-5.5c-6.4-2.4-11.5-5.2-15.2-8.2
		L70.9,72.9L70.9,72.9z"/>
	<path class="st0" d="M54.5,20.9c0.3-0.9,0.6-1.8,1-2.7L52.2,7.7h-1.8L54.5,20.9z"/>
	<path class="st0" d="M104.2,16.6c2.2,4,3.3,8.6,3.3,13.7H92.8c0.1,0.8,0.1,1.7,0.1,2.6h17.2c0-5.1-1.1-9.7-3.3-13.7
		c-1.4-2.5-3.2-4.7-5.3-6.5C102.5,13.9,103.4,15.1,104.2,16.6z"/>
	<path class="st0" d="M87.8,21.2c-1.7-2.1-4.2-3.1-7.4-3.1c-3,0-5.4,0.9-7,2.7c-1.7,1.8-2.5,4.2-2.5,7.2c0,2.3,0.9,4.5,2.8,6.4
		c0.4,0.4,0.9,0.9,1.5,1.3c-1.1-1.5-1.7-3.2-1.7-5c0-3,0.8-5.4,2.5-7.2c1.7-1.8,4-2.7,7-2.7c2.1,0,3.9,0.5,5.3,1.3
		C88.2,21.7,88,21.4,87.8,21.2z"/>
	<polygon class="st0" points="43.3,34.5 41.6,28.2 33.6,58.6 37,58.6 	"/>
	<path class="st0" d="M101.8,51.2c3.7,4.4,5.6,9.9,5.6,16.7c0,7.4-2.4,13.2-7.1,17.4c-4.7,4.2-11.2,6.3-19.3,6.3
		c-5.5,0-10.5-1.1-15.1-3.4c-2-1-3.8-2.2-5.5-3.6c2.2,2.6,4.9,4.7,8.1,6.3c4.5,2.3,9.5,3.4,15.1,3.4c8.1,0,14.6-2.1,19.3-6.3
		c4.7-4.2,7.1-10,7.1-17.4c0-6.8-1.9-12.3-5.7-16.7C103.6,52.9,102.8,52.1,101.8,51.2z"/>
	<path class="st0" d="M53,72.9H29.9l-4.6,17.5H10.6L9.8,93H28l4.6-17.5h21.4C53.6,74.7,53.2,73.8,53,72.9z"/>
</g>
<path class="st0" d="M81,37.5c-4.8-2-8.1-4-10-5.9c-1.9-1.9-2.8-4-2.8-6.4c0-3,0.8-5.4,2.5-7.2c1.7-1.8,4-2.7,7-2.7
	c3.2,0,5.7,1,7.4,3.1c1.7,2.1,2.5,5.1,2.5,9.1h17.2c0-5.1-1.1-9.7-3.3-13.7c-2.2-4-5.4-7.1-9.5-9.3c-4.1-2.2-8.8-3.3-14-3.3
	c-7.9,0-14.3,2.2-19.4,6.5c-3.4,2.9-5.6,6.4-6.8,10.5l-5-15.8H31.1L4.5,87.7h18.2l4.6-17.5h23.1c0.6,1.9,1.4,3.8,2.4,5.5
	c2.6,4.2,6.1,7.5,10.6,9.7c4.5,2.3,9.5,3.4,15.1,3.4c8.1,0,14.6-2.1,19.3-6.3c4.7-4.2,7.1-10,7.1-17.4c0-6.8-1.9-12.3-5.7-16.7
	C95.3,44.2,89.3,40.5,81,37.5z M31,55.9l8-30.4l8,30.4H31z M78.4,74.9c-4.3,0-7.5-1.1-9.4-3.3c-0.3-0.4-0.5-0.9-0.8-1.3h0l-8.4-26.6
	c3.7,3.1,8.8,5.8,15.2,8.2c4.7,1.9,7.9,3.8,9.7,5.5c1.8,1.8,2.7,4.4,2.7,7.9C87.4,71.7,84.4,74.9,78.4,74.9z"/>
<g>
	<path d="M2.7,100.7c0-0.1,0-0.2-0.1-0.3s-0.3-0.2-0.6-0.3c-0.5-0.2-0.8-0.4-0.9-0.6s-0.3-0.4-0.3-0.7c0-0.4,0.1-0.7,0.4-0.9
		s0.6-0.4,1.1-0.4c0.5,0,0.8,0.1,1.1,0.4s0.4,0.6,0.4,1H2.7c0-0.3-0.1-0.5-0.4-0.5c-0.1,0-0.2,0-0.3,0.1s-0.1,0.2-0.1,0.3
		c0,0.1,0,0.2,0.1,0.2s0.3,0.2,0.6,0.3c0.5,0.2,0.8,0.4,1,0.6s0.3,0.5,0.3,0.8c0,0.4-0.1,0.7-0.4,0.9s-0.7,0.3-1.1,0.3
		c-0.3,0-0.6-0.1-0.8-0.2s-0.4-0.3-0.6-0.5s-0.2-0.4-0.2-0.7h1.1c0,0.2,0.1,0.3,0.1,0.4s0.2,0.1,0.4,0.1
		C2.6,101.1,2.7,101,2.7,100.7z"/>
	<path d="M6.5,101.9c0-0.1-0.1-0.2-0.1-0.3c-0.2,0.3-0.5,0.4-0.8,0.4c-0.4,0-0.6-0.1-0.9-0.4s-0.3-0.5-0.3-0.9c0-0.4,0.1-0.8,0.4-1
		s0.7-0.4,1.2-0.4h0.3v-0.3c0-0.2,0-0.3-0.1-0.4S6.1,98.4,6,98.4c-0.3,0-0.4,0.2-0.4,0.5H4.5c0-0.4,0.1-0.7,0.4-1s0.7-0.4,1.1-0.4
		c0.5,0,0.8,0.1,1.1,0.4s0.4,0.6,0.4,1v2c0,0.4,0.1,0.6,0.2,0.9v0.1H6.5z M5.9,101.1c0.1,0,0.2,0,0.3-0.1s0.1-0.1,0.2-0.2V100H6.1
		c-0.2,0-0.3,0.1-0.4,0.2s-0.2,0.3-0.2,0.5C5.5,100.9,5.6,101.1,5.9,101.1z"/>
	<path d="M10.3,98.7l-0.4,0c-0.3,0-0.5,0.1-0.6,0.4v2.8H8.3v-4.2h1l0,0.5c0.2-0.4,0.4-0.5,0.7-0.5c0.1,0,0.2,0,0.3,0.1L10.3,98.7z"
		/>
	<path d="M12.4,101c0.3,0,0.5-0.2,0.5-0.6h1c0,0.5-0.1,0.8-0.4,1.1s-0.6,0.4-1.1,0.4c-0.5,0-1-0.2-1.2-0.5s-0.4-0.8-0.4-1.5v-0.3
		c0-0.7,0.1-1.2,0.4-1.5s0.7-0.5,1.3-0.5c0.5,0,0.8,0.1,1.1,0.4s0.4,0.7,0.4,1.2h-1c0-0.2,0-0.4-0.1-0.5s-0.2-0.2-0.4-0.2
		c-0.2,0-0.3,0.1-0.4,0.2s-0.1,0.4-0.1,0.8v0.4c0,0.3,0,0.6,0.1,0.7s0.1,0.2,0.2,0.3S12.2,101,12.4,101z"/>
	<path d="M16.2,101.9c-0.6,0-1-0.2-1.3-0.5s-0.5-0.8-0.5-1.5v-0.3c0-0.7,0.1-1.2,0.4-1.5s0.7-0.5,1.3-0.5c0.5,0,0.9,0.2,1.2,0.5
		c0.3,0.3,0.4,0.8,0.4,1.5v0.5h-2.2c0,0.3,0.1,0.5,0.2,0.7s0.3,0.2,0.6,0.2c0.4,0,0.7-0.1,0.9-0.4l0.4,0.7c-0.1,0.2-0.3,0.3-0.6,0.5
		S16.5,101.9,16.2,101.9z M15.5,99.4h1.1v-0.1c0-0.3,0-0.4-0.1-0.6s-0.2-0.2-0.4-0.2s-0.3,0.1-0.4,0.2S15.5,99,15.5,99.4z"/>
	<path d="M19.7,100.3l0.5-2.7h1.2l-1.2,4.2h-1.1L18,97.6h1.2L19.7,100.3z"/>
	<path d="M21.9,96.5c0-0.2,0.1-0.3,0.2-0.4s0.3-0.2,0.4-0.2s0.3,0.1,0.4,0.2s0.2,0.3,0.2,0.4c0,0.2-0.1,0.3-0.2,0.4
		s-0.3,0.2-0.4,0.2s-0.3-0.1-0.4-0.2S21.9,96.7,21.9,96.5z M23.1,101.9h-1.1v-4.2h1.1V101.9z"/>
	<path d="M25.4,101c0.3,0,0.5-0.2,0.5-0.6h1c0,0.5-0.1,0.8-0.4,1.1s-0.6,0.4-1.1,0.4c-0.5,0-1-0.2-1.2-0.5s-0.4-0.8-0.4-1.5v-0.3
		c0-0.7,0.1-1.2,0.4-1.5s0.7-0.5,1.3-0.5c0.5,0,0.8,0.1,1.1,0.4s0.4,0.7,0.4,1.2h-1c0-0.2,0-0.4-0.1-0.5s-0.2-0.2-0.4-0.2
		c-0.2,0-0.3,0.1-0.4,0.2s-0.1,0.4-0.1,0.8v0.4c0,0.3,0,0.6,0.1,0.7s0.1,0.2,0.2,0.3S25.3,101,25.4,101z"/>
	<path d="M27.7,101.3c0-0.2,0.1-0.3,0.2-0.4s0.3-0.2,0.5-0.2c0.2,0,0.3,0.1,0.5,0.2s0.2,0.3,0.2,0.4c0,0.2-0.1,0.3-0.2,0.4
		s-0.3,0.2-0.5,0.2c-0.2,0-0.3-0.1-0.5-0.2S27.7,101.5,27.7,101.3z"/>
	<path d="M29.8,99.6c0-0.7,0.1-1.2,0.4-1.6s0.6-0.5,1.1-0.5c0.4,0,0.7,0.2,0.9,0.5l0-0.4h1v4.2c0,0.5-0.2,1-0.5,1.2
		s-0.7,0.4-1.3,0.4c-0.2,0-0.5,0-0.7-0.1s-0.4-0.2-0.6-0.4l0.4-0.8c0.1,0.1,0.2,0.2,0.4,0.3s0.3,0.1,0.5,0.1c0.2,0,0.4-0.1,0.5-0.2
		s0.2-0.3,0.2-0.6v-0.4c-0.2,0.3-0.5,0.4-0.8,0.4c-0.5,0-0.8-0.2-1-0.5s-0.4-0.8-0.4-1.5V99.6z M30.9,99.9c0,0.4,0.1,0.7,0.2,0.9
		s0.3,0.3,0.5,0.3c0.2,0,0.4-0.1,0.5-0.2v-2c-0.1-0.2-0.3-0.3-0.5-0.3c-0.2,0-0.4,0.1-0.5,0.3s-0.2,0.5-0.2,0.9V99.9z"/>
	<path d="M33.9,96.5c0-0.2,0.1-0.3,0.2-0.4s0.3-0.2,0.4-0.2s0.3,0.1,0.4,0.2s0.2,0.3,0.2,0.4c0,0.2-0.1,0.3-0.2,0.4
		s-0.3,0.2-0.4,0.2s-0.3-0.1-0.4-0.2S33.9,96.7,33.9,96.5z M35.1,101.9H34v-4.2h1.1V101.9z"/>
	<path d="M37.2,96.6v1h0.6v0.8h-0.6v2.1c0,0.2,0,0.3,0.1,0.3s0.1,0.1,0.3,0.1c0.1,0,0.2,0,0.3,0l0,0.9c-0.2,0.1-0.4,0.1-0.6,0.1
		c-0.7,0-1.1-0.4-1.1-1.2v-2.2h-0.5v-0.8h0.5v-1H37.2z"/>
	<path d="M39.6,101.9h-1.1v-6h1.1V101.9z"/>
	<path d="M42.4,101.9c0-0.1-0.1-0.2-0.1-0.3c-0.2,0.3-0.5,0.4-0.8,0.4c-0.4,0-0.6-0.1-0.9-0.4s-0.3-0.5-0.3-0.9c0-0.4,0.1-0.8,0.4-1
		s0.7-0.4,1.2-0.4h0.3v-0.3c0-0.2,0-0.3-0.1-0.4s-0.2-0.1-0.3-0.1c-0.3,0-0.4,0.2-0.4,0.5h-1.1c0-0.4,0.1-0.7,0.4-1s0.7-0.4,1.1-0.4
		c0.5,0,0.8,0.1,1.1,0.4s0.4,0.6,0.4,1v2c0,0.4,0.1,0.6,0.2,0.9v0.1H42.4z M41.8,101.1c0.1,0,0.2,0,0.3-0.1s0.1-0.1,0.2-0.2V100H42
		c-0.2,0-0.3,0.1-0.4,0.2s-0.2,0.3-0.2,0.5C41.4,100.9,41.5,101.1,41.8,101.1z"/>
	<path d="M47.5,99.9c0,0.7-0.1,1.2-0.3,1.5s-0.6,0.5-1,0.5c-0.4,0-0.7-0.2-0.9-0.5l0,0.4h-1v-6h1.1V98c0.2-0.3,0.5-0.4,0.8-0.4
		c0.5,0,0.8,0.2,1,0.5s0.3,0.8,0.3,1.5V99.9z M46.4,99.6c0-0.4,0-0.7-0.1-0.9s-0.2-0.2-0.4-0.2c-0.2,0-0.4,0.1-0.5,0.3v1.9
		c0.1,0.2,0.3,0.3,0.5,0.3c0.2,0,0.4-0.1,0.4-0.2s0.1-0.4,0.1-0.8V99.6z"/>
	<path d="M48.2,101.3c0-0.2,0.1-0.3,0.2-0.4s0.3-0.2,0.5-0.2c0.2,0,0.3,0.1,0.5,0.2s0.2,0.3,0.2,0.4c0,0.2-0.1,0.3-0.2,0.4
		s-0.3,0.2-0.5,0.2c-0.2,0-0.3-0.1-0.5-0.2S48.2,101.5,48.2,101.3z"/>
	<path d="M50.5,96.5c0-0.2,0.1-0.3,0.2-0.4s0.3-0.2,0.4-0.2s0.3,0.1,0.4,0.2s0.2,0.3,0.2,0.4c0,0.2-0.1,0.3-0.2,0.4
		s-0.3,0.2-0.4,0.2s-0.3-0.1-0.4-0.2S50.5,96.7,50.5,96.5z M51.6,101.9h-1.1v-4.2h1.1V101.9z"/>
	<path d="M52.4,99.6c0-0.6,0.2-1.1,0.5-1.5s0.7-0.5,1.3-0.5c0.5,0,1,0.2,1.3,0.5s0.5,0.9,0.5,1.5v0.3c0,0.6-0.1,1.1-0.4,1.5
		s-0.7,0.5-1.3,0.5c-0.5,0-1-0.2-1.3-0.5s-0.5-0.9-0.5-1.5V99.6z M53.5,99.9c0,0.8,0.2,1.1,0.6,1.1c0.4,0,0.6-0.3,0.6-0.9l0-0.5
		c0-0.4-0.1-0.7-0.2-0.9s-0.3-0.3-0.5-0.3c-0.2,0-0.3,0.1-0.4,0.3s-0.2,0.5-0.2,0.9V99.9z"/>
	<path d="M56.9,102.4h-0.8l1.7-6.2h0.8L56.9,102.4z"/>
	<path d="M61.1,101.9c0-0.1-0.1-0.2-0.1-0.3c-0.2,0.3-0.5,0.4-0.8,0.4c-0.4,0-0.6-0.1-0.9-0.4s-0.3-0.5-0.3-0.9c0-0.4,0.1-0.8,0.4-1
		s0.7-0.4,1.2-0.4H61v-0.3c0-0.2,0-0.3-0.1-0.4s-0.2-0.1-0.3-0.1c-0.3,0-0.4,0.2-0.4,0.5h-1.1c0-0.4,0.1-0.7,0.4-1s0.7-0.4,1.1-0.4
		c0.5,0,0.8,0.1,1.1,0.4s0.4,0.6,0.4,1v2c0,0.4,0.1,0.6,0.2,0.9v0.1H61.1z M60.5,101.1c0.1,0,0.2,0,0.3-0.1s0.1-0.1,0.2-0.2V100
		h-0.3c-0.2,0-0.3,0.1-0.4,0.2s-0.2,0.3-0.2,0.5C60.1,100.9,60.2,101.1,60.5,101.1z"/>
	<path d="M63.9,97.6l0,0.4c0.2-0.3,0.6-0.5,1-0.5c0.7,0,1.1,0.5,1.1,1.5v2.8h-1.1v-2.7c0-0.2,0-0.4-0.1-0.5s-0.2-0.2-0.4-0.2
		c-0.2,0-0.4,0.1-0.5,0.3v3.1h-1.1v-4.2H63.9z"/>
	<path d="M68.1,96.6v1h0.6v0.8h-0.6v2.1c0,0.2,0,0.3,0.1,0.3s0.1,0.1,0.3,0.1c0.1,0,0.2,0,0.3,0l0,0.9c-0.2,0.1-0.4,0.1-0.6,0.1
		c-0.7,0-1.1-0.4-1.1-1.2v-2.2h-0.5v-0.8H67v-1H68.1z"/>
	<path d="M69,99.6c0-0.6,0.2-1.1,0.5-1.5s0.7-0.5,1.3-0.5c0.5,0,1,0.2,1.3,0.5s0.5,0.9,0.5,1.5v0.3c0,0.6-0.1,1.1-0.4,1.5
		s-0.7,0.5-1.3,0.5c-0.5,0-1-0.2-1.3-0.5s-0.5-0.9-0.5-1.5V99.6z M70.2,99.9c0,0.8,0.2,1.1,0.6,1.1c0.4,0,0.6-0.3,0.6-0.9l0-0.5
		c0-0.4-0.1-0.7-0.2-0.9s-0.3-0.3-0.5-0.3c-0.2,0-0.3,0.1-0.4,0.3s-0.2,0.5-0.2,0.9V99.9z"/>
	<path d="M74.2,97.6l0,0.4c0.3-0.3,0.6-0.5,1-0.5c0.7,0,1.1,0.5,1.1,1.5v2.8h-1.1v-2.7c0-0.2,0-0.4-0.1-0.5s-0.2-0.2-0.4-0.2
		c-0.2,0-0.4,0.1-0.5,0.3v3.1h-1.1v-4.2H74.2z"/>
	<path d="M77.1,96.5c0-0.2,0.1-0.3,0.2-0.4s0.3-0.2,0.4-0.2s0.3,0.1,0.4,0.2s0.2,0.3,0.2,0.4c0,0.2-0.1,0.3-0.2,0.4
		s-0.3,0.2-0.4,0.2s-0.3-0.1-0.4-0.2S77.1,96.7,77.1,96.5z M78.2,101.9h-1.1v-4.2h1.1V101.9z"/>
	<path d="M79,99.6c0-0.6,0.2-1.1,0.5-1.5s0.7-0.5,1.3-0.5c0.5,0,1,0.2,1.3,0.5s0.5,0.9,0.5,1.5v0.3c0,0.6-0.1,1.1-0.4,1.5
		s-0.7,0.5-1.3,0.5c-0.5,0-1-0.2-1.3-0.5s-0.5-0.9-0.5-1.5V99.6z M80.1,99.9c0,0.8,0.2,1.1,0.6,1.1c0.4,0,0.6-0.3,0.6-0.9l0-0.5
		c0-0.4-0.1-0.7-0.2-0.9s-0.3-0.3-0.5-0.3c-0.2,0-0.3,0.1-0.4,0.3s-0.2,0.5-0.2,0.9V99.9z"/>
	<path d="M83.2,101.3c0-0.2,0.1-0.3,0.2-0.4s0.3-0.2,0.5-0.2c0.2,0,0.3,0.1,0.5,0.2s0.2,0.3,0.2,0.4c0,0.2-0.1,0.3-0.2,0.4
		s-0.3,0.2-0.5,0.2c-0.2,0-0.3-0.1-0.5-0.2S83.2,101.5,83.2,101.3z"/>
	<path d="M87.3,100.7c0-0.1,0-0.2-0.1-0.3s-0.3-0.2-0.6-0.3c-0.5-0.2-0.8-0.4-0.9-0.6s-0.3-0.4-0.3-0.7c0-0.4,0.1-0.7,0.4-0.9
		s0.6-0.4,1.1-0.4c0.5,0,0.8,0.1,1.1,0.4s0.4,0.6,0.4,1h-1.1c0-0.3-0.1-0.5-0.4-0.5c-0.1,0-0.2,0-0.3,0.1s-0.1,0.2-0.1,0.3
		c0,0.1,0,0.2,0.1,0.2s0.3,0.2,0.6,0.3c0.5,0.2,0.8,0.4,1,0.6s0.3,0.5,0.3,0.8c0,0.4-0.1,0.7-0.4,0.9s-0.7,0.3-1.1,0.3
		c-0.3,0-0.6-0.1-0.8-0.2s-0.4-0.3-0.6-0.5s-0.2-0.4-0.2-0.7h1.1c0,0.2,0.1,0.3,0.1,0.4s0.2,0.1,0.4,0.1
		C87.1,101.1,87.3,101,87.3,100.7z"/>
	<path d="M91.1,101.9c0-0.1-0.1-0.2-0.1-0.3c-0.2,0.3-0.5,0.4-0.8,0.4c-0.4,0-0.6-0.1-0.9-0.4s-0.3-0.5-0.3-0.9c0-0.4,0.1-0.8,0.4-1
		s0.7-0.4,1.2-0.4h0.3v-0.3c0-0.2,0-0.3-0.1-0.4s-0.2-0.1-0.3-0.1c-0.3,0-0.4,0.2-0.4,0.5H89c0-0.4,0.1-0.7,0.4-1s0.7-0.4,1.1-0.4
		c0.5,0,0.8,0.1,1.1,0.4s0.4,0.6,0.4,1v2c0,0.4,0.1,0.6,0.2,0.9v0.1H91.1z M90.4,101.1c0.1,0,0.2,0,0.3-0.1s0.1-0.1,0.2-0.2V100
		h-0.3c-0.2,0-0.3,0.1-0.4,0.2s-0.2,0.3-0.2,0.5C90,100.9,90.2,101.1,90.4,101.1z"/>
	<path d="M94.9,98.7l-0.4,0c-0.3,0-0.5,0.1-0.6,0.4v2.8h-1.1v-4.2h1l0,0.5c0.2-0.4,0.4-0.5,0.7-0.5c0.1,0,0.2,0,0.3,0.1L94.9,98.7z"
		/>
	<path d="M96.9,101c0.3,0,0.5-0.2,0.5-0.6h1c0,0.5-0.1,0.8-0.4,1.1s-0.6,0.4-1.1,0.4c-0.5,0-1-0.2-1.2-0.5s-0.4-0.8-0.4-1.5v-0.3
		c0-0.7,0.1-1.2,0.4-1.5s0.7-0.5,1.3-0.5c0.5,0,0.8,0.1,1.1,0.4s0.4,0.7,0.4,1.2h-1c0-0.2,0-0.4-0.1-0.5s-0.2-0.2-0.4-0.2
		c-0.2,0-0.3,0.1-0.4,0.2s-0.1,0.4-0.1,0.8v0.4c0,0.3,0,0.6,0.1,0.7s0.1,0.2,0.2,0.3S96.8,101,96.9,101z"/>
	<path d="M100.8,101.9c-0.6,0-1-0.2-1.3-0.5S99,100.6,99,100v-0.3c0-0.7,0.1-1.2,0.4-1.5s0.7-0.5,1.3-0.5c0.5,0,0.9,0.2,1.2,0.5
		c0.3,0.3,0.4,0.8,0.4,1.5v0.5h-2.2c0,0.3,0.1,0.5,0.2,0.7s0.3,0.2,0.6,0.2c0.4,0,0.7-0.1,0.9-0.4l0.4,0.7c-0.1,0.2-0.3,0.3-0.6,0.5
		S101.1,101.9,100.8,101.9z M100.1,99.4h1.1v-0.1c0-0.3,0-0.4-0.1-0.6s-0.2-0.2-0.4-0.2s-0.3,0.1-0.4,0.2S100.1,99,100.1,99.4z"/>
	<path d="M104.2,100.3l0.5-2.7h1.2l-1.2,4.2h-1.1l-1.2-4.2h1.2L104.2,100.3z"/>
	<path d="M106.4,96.5c0-0.2,0.1-0.3,0.2-0.4s0.3-0.2,0.4-0.2s0.3,0.1,0.4,0.2s0.2,0.3,0.2,0.4c0,0.2-0.1,0.3-0.2,0.4
		s-0.3,0.2-0.4,0.2s-0.3-0.1-0.4-0.2S106.4,96.7,106.4,96.5z M107.6,101.9h-1.1v-4.2h1.1V101.9z"/>
	<path d="M110,101c0.3,0,0.5-0.2,0.5-0.6h1c0,0.5-0.1,0.8-0.4,1.1s-0.6,0.4-1.1,0.4c-0.5,0-1-0.2-1.2-0.5s-0.4-0.8-0.4-1.5v-0.3
		c0-0.7,0.1-1.2,0.4-1.5s0.7-0.5,1.3-0.5c0.5,0,0.8,0.1,1.1,0.4s0.4,0.7,0.4,1.2h-1c0-0.2,0-0.4-0.1-0.5s-0.2-0.2-0.4-0.2
		c-0.2,0-0.3,0.1-0.4,0.2s-0.1,0.4-0.1,0.8v0.4c0,0.3,0,0.6,0.1,0.7s0.1,0.2,0.2,0.3S109.8,101,110,101z"/>
	<path d="M112.5,102.4h-0.8l1.7-6.2h0.8L112.5,102.4z"/>
</g>
<g>
</g>
<g>
</g>
<g>
</g>
<g>
</g>
<g>
</g>
</svg>
